ffmpeg started on 2026-03-30 at 17:14:52
Report written to "D:\Convert\FFMetrics\reports\psnr_report-6.txt"
Log level: 32
Command line:
ffmpeg -hide_banner -nostdin -r 24000/1001 -i "F:\\\xc0\xed\xe8\xec\xe5\\LightFamily\\\xdf \xef\xf0\xe8\xe1\xf0\xe0\xeb \xea \xf0\xf3\xea\xe0\xec \xe4\xe5\xe2\xf3\xf8\xea\xf3 \xe8 \xf2\xe5\xef\xe5\xf0\xfc \xff \xf3\xf7\xf3 \xe5\xb8 \xe2\xf1\xff\xea\xe8\xec \xef\xeb\xee\xf5\xe8\xec \xe2\xe5\xf9\xe0\xec\\LightFamilyDUB_\xdf_\xef\xf0\xe8\xe1\xf0\xe0\xeb_\xea_\xf0\xf3\xea\xe0\xec_\xe4\xe5\xe2\xf3\xf8\xea\xf3_\xe8_\xf2\xe5\xef\xe5\xf0\xfc_\xf3\xf7\xf3_\xe5\xb8_\xe2\xf1\xff\xea\xe8\xec_05_HEVC.mkv" -r 24000/1001 -i "F:\\\xc0\xed\xe8\xec\xe5\\LightFamily\\\xdf \xef\xf0\xe8\xe1\xf0\xe0\xeb \xea \xf0\xf3\xea\xe0\xec \xe4\xe5\xe2\xf3\xf8\xea\xf3 \xe8 \xf2\xe5\xef\xe5\xf0\xfc \xff \xf3\xf7\xf3 \xe5\xb8 \xe2\xf1\xff\xea\xe8\xec \xef\xeb\xee\xf5\xe8\xec \xe2\xe5\xf9\xe0\xec\\LightFamilyDUB_\xdf_\xef\xf0\xe8\xe1\xf0\xe0\xeb_\xea_\xf0\xf3\xea\xe0\xec_\xe4\xe5\xe2\xf3\xf8\xea\xf3_\xe8_\xf2\xe5\xef\xe5\xf0\xfc_\xf3\xf7\xf3_\xe5\xb8_\xe2\xf1\xff\xea\xe8\xec_05.mp4" -lavfi "[0:v]settb=AVTB,setpts=PTS-STARTPTS,format=pix_fmts=yuv420p10le,fps=24000/1001,scale=1920:1080:flags=lanczos:param0=3:out_range=limited:out_chroma_loc=left,setsar=1/1,setdar=(1920/1080)*(1/1)[main];[1:v]settb=AVTB,setpts=PTS-STARTPTS,format=pix_fmts=yuv420p,fps=24000/1001,scale=1920:1080:flags=lanczos:param0=3:out_range=limited:out_chroma_loc=left,setsar=1/1,setdar=(1920/1080)*(1/1)[ref];[main][ref]psnr=eof_action=endall:stats_file='D\\:/Convert/FFMetrics/logs/psnr_logfile-6.txt'" -f null -
Input #0, matroska,webm, from 'F:\Аниме\LightFamily\Я прибрал к рукам девушку и теперь я учу её всяким плохим вещам\LightFamilyDUB_Я_прибрал_к_рукам_девушку_и_теперь_учу_её_всяким_05_HEVC.mkv':
  Metadata:
    COMPATIBLE_BRANDS: mp42mp41
    MAJOR_BRAND     : mp42
    MINOR_VERSION   : 0
    ENCODER         : Lavf61.7.100
  Duration: 00:23:41.65, start: -0.021000, bitrate: 1131 kb/s
  Stream #0:0(eng): Video: hevc (Main 10), yuv420p10le(tv, progressive), 1920x1080 [SAR 1:1 DAR 16:9], 23.98 fps, 23.98 tbr, 1k tbn (default)
      Metadata:
        HANDLER_NAME    : Mainconcept Video Media Handler
        VENDOR_ID       : [0][0][0][0]
        ENCODER         : Lavc61.19.100 libx265
        BPS             : 931124
        DURATION        : 00:23:41.628708333
        NUMBER_OF_FRAMES: 34085
        NUMBER_OF_BYTES : 165464130
        _STATISTICS_WRITING_APP: mkvpropedit v94.0 ('Initiate') 64-bit
        _STATISTICS_WRITING_DATE_UTC: 2026-03-29 15:46:49
        _STATISTICS_TAGS: BPS DURATION NUMBER_OF_FRAMES NUMBER_OF_BYTES
  Stream #0:1(eng): Audio: aac (LC), 48000 Hz, stereo, fltp (default)
      Metadata:
        HANDLER_NAME    : #Mainconcept MP4 Sound Media Handler
        VENDOR_ID       : [0][0][0][0]
        ENCODER         : Lavc61.19.100 aac
        BPS             : 196168
        DURATION        : 00:23:41.632000000
        NUMBER_OF_FRAMES: 66640
        NUMBER_OF_BYTES : 34859875
        _STATISTICS_WRITING_APP: mkvpropedit v94.0 ('Initiate') 64-bit
        _STATISTICS_WRITING_DATE_UTC: 2026-03-29 15:46:49
        _STATISTICS_TAGS: BPS DURATION NUMBER_OF_FRAMES NUMBER_OF_BYTES
Input #1, mov,mp4,m4a,3gp,3g2,mj2, from 'F:\Аниме\LightFamily\Я прибрал к рукам девушку и теперь я учу её всяким плохим вещам\LightFamilyDUB_Я_прибрал_к_рукам_девушку_и_теперь_учу_её_всяким_05.mp4':
  Metadata:
    major_brand     : mp42
    minor_version   : 0
    compatible_brands: mp42mp41
    creation_time   : 2025-10-07T20:30:34.000000Z
  Duration: 00:23:41.63, start: 0.000000, bitrate: 8671 kb/s
  Stream #1:0[0x1](eng): Video: h264 (Main) (avc1 / 0x31637661), yuv420p(progressive), 1920x1080 [SAR 1:1 DAR 16:9], 8287 kb/s, 23.98 fps, 23.98 tbr, 24k tbn (default)
      Metadata:
        creation_time   : 2025-10-07T20:30:34.000000Z
        handler_name    : Mainconcept Video Media Handler
        vendor_id       : [0][0][0][0]
        encoder         : AVC Coding
  Stream #1:1[0x2](eng): Audio: aac (LC) (mp4a / 0x6134706D), 48000 Hz, stereo, fltp, 381 kb/s (default)
      Metadata:
        creation_time   : 2025-10-07T20:30:34.000000Z
        handler_name    : #Mainconcept MP4 Sound Media Handler
        vendor_id       : [0][0][0][0]
Stream mapping:
  Stream #0:0 (hevc) -> settb:default
  Stream #1:0 (h264) -> settb:default
  psnr:default -> Stream #0:0 (wrapped_avframe)
  Stream #0:1 -> #0:1 (aac (native) -> pcm_s16le (native))
Output #0, null, to 'pipe:':
  Metadata:
    COMPATIBLE_BRANDS: mp42mp41
    MAJOR_BRAND     : mp42
    MINOR_VERSION   : 0
    encoder         : Lavf61.7.100
  Stream #0:0: Video: wrapped_avframe, yuv420p10le(tv, progressive), 1920x1080 [SAR 1:1 DAR 16:9], q=2-31, 200 kb/s, 23.98 fps, 23.98 tbn
      Metadata:
        encoder         : Lavc61.19.100 wrapped_avframe
  Stream #0:1(eng): Audio: pcm_s16le, 48000 Hz, stereo, s16, 1536 kb/s (default)
      Metadata:
        HANDLER_NAME    : #Mainconcept MP4 Sound Media Handler
        VENDOR_ID       : [0][0][0][0]
        _STATISTICS_TAGS: BPS DURATION NUMBER_OF_FRAMES NUMBER_OF_BYTES
        BPS             : 196168
        DURATION        : 00:23:41.632000000
        NUMBER_OF_FRAMES: 66640
        NUMBER_OF_BYTES : 34859875
        _STATISTICS_WRITING_APP: mkvpropedit v94.0 ('Initiate') 64-bit
        _STATISTICS_WRITING_DATE_UTC: 2026-03-29 15:46:49
        encoder         : Lavc61.19.100 pcm_s16le
frame=  179 fps=0.0 q=-0.0 size=N/A time=00:00:07.46 bitrate=N/A speed=14.3x    frame=  345 fps=334 q=-0.0 size=N/A time=00:00:14.38 bitrate=N/A speed=13.9x    frame=  559 fps=362 q=-0.0 size=N/A time=00:00:23.31 bitrate=N/A speed=15.1x    frame=  755 fps=367 q=-0.0 size=N/A time=00:00:31.48 bitrate=N/A speed=15.3x    frame=  897 fps=347 q=-0.0 size=N/A time=00:00:37.41 bitrate=N/A speed=14.5x    frame= 1053 fps=340 q=-0.0 size=N/A time=00:00:43.91 bitrate=N/A speed=14.2x    frame= 1229 fps=341 q=-0.0 size=N/A time=00:00:51.25 bitrate=N/A speed=14.2x    frame= 1436 fps=347 q=-0.0 size=N/A time=00:00:59.89 bitrate=N/A speed=14.5x    frame= 1669 fps=358 q=-0.0 size=N/A time=00:01:09.61 bitrate=N/A speed=14.9x    frame= 1867 fps=361 q=-0.0 size=N/A time=00:01:17.86 bitrate=N/A speed=  15x    frame= 2010 fps=354 q=-0.0 size=N/A time=00:01:23.83 bitrate=N/A speed=14.7x    frame= 2173 fps=350 q=-0.0 size=N/A time=00:01:30.63 bitrate=N/A speed=14.6x    frame= 2314 fps=343 q=-0.0 size=N/A time=00:01:36.51 bitrate=N/A speed=14.3x    frame= 2478 fps=342 q=-0.0 size=N/A time=00:01:43.35 bitrate=N/A speed=14.2x    frame= 2648 fps=341 q=-0.0 size=N/A time=00:01:50.44 bitrate=N/A speed=14.2x    frame= 2821 fps=341 q=-0.0 size=N/A time=00:01:57.65 bitrate=N/A speed=14.2x    frame= 3059 fps=347 q=-0.0 size=N/A time=00:02:07.58 bitrate=N/A speed=14.5x    frame= 3281 fps=352 q=-0.0 size=N/A time=00:02:16.84 bitrate=N/A speed=14.7x    frame= 3522 fps=358 q=-0.0 size=N/A time=00:02:26.89 bitrate=N/A speed=14.9x    frame= 3754 fps=363 q=-0.0 size=N/A time=00:02:36.57 bitrate=N/A speed=15.1x    frame= 3985 fps=367 q=-0.0 size=N/A time=00:02:46.20 bitrate=N/A speed=15.3x    frame= 4188 fps=368 q=-0.0 size=N/A time=00:02:54.67 bitrate=N/A speed=15.4x    frame= 4427 fps=372 q=-0.0 size=N/A time=00:03:04.64 bitrate=N/A speed=15.5x    frame= 4668 fps=376 q=-0.0 size=N/A time=00:03:14.69 bitrate=N/A speed=15.7x    frame= 4911 fps=380 q=-0.0 size=N/A time=00:03:24.82 bitrate=N/A speed=15.8x    frame= 5128 fps=381 q=-0.0 size=N/A time=00:03:33.88 bitrate=N/A speed=15.9x    frame= 5364 fps=384 q=-0.0 size=N/A time=00:03:43.72 bitrate=N/A speed=  16x    frame= 5602 fps=387 q=-0.0 size=N/A time=00:03:53.65 bitrate=N/A speed=16.2x    frame= 5847 fps=390 q=-0.0 size=N/A time=00:04:03.86 bitrate=N/A speed=16.3x    frame= 6064 fps=391 q=-0.0 size=N/A time=00:04:12.91 bitrate=N/A speed=16.3x    frame= 6287 fps=393 q=-0.0 size=N/A time=00:04:22.22 bitrate=N/A speed=16.4x    frame= 6506 fps=394 q=-0.0 size=N/A time=00:04:31.35 bitrate=N/A speed=16.4x    frame= 6749 fps=396 q=-0.0 size=N/A time=00:04:41.48 bitrate=N/A speed=16.5x    frame= 6985 fps=398 q=-0.0 size=N/A time=00:04:51.33 bitrate=N/A speed=16.6x    frame= 7206 fps=399 q=-0.0 size=N/A time=00:05:00.55 bitrate=N/A speed=16.6x    frame= 7419 fps=399 q=-0.0 size=N/A time=00:05:09.43 bitrate=N/A speed=16.6x    frame= 7633 fps=399 q=-0.0 size=N/A time=00:05:18.35 bitrate=N/A speed=16.7x    frame= 7852 fps=400 q=-0.0 size=N/A time=00:05:27.49 bitrate=N/A speed=16.7x    frame= 8075 fps=401 q=-0.0 size=N/A time=00:05:36.79 bitrate=N/A speed=16.7x    frame= 8289 fps=401 q=-0.0 size=N/A time=00:05:45.72 bitrate=N/A speed=16.7x    frame= 8514 fps=402 q=-0.0 size=N/A time=00:05:55.10 bitrate=N/A speed=16.8x    frame= 8738 fps=403 q=-0.0 size=N/A time=00:06:04.44 bitrate=N/A speed=16.8x    frame= 8952 fps=403 q=-0.0 size=N/A time=00:06:13.37 bitrate=N/A speed=16.8x    frame= 9171 fps=404 q=-0.0 size=N/A time=00:06:22.50 bitrate=N/A speed=16.8x    frame= 9398 fps=404 q=-0.0 size=N/A time=00:06:31.97 bitrate=N/A speed=16.9x    frame= 9623 fps=405 q=-0.0 size=N/A time=00:06:41.35 bitrate=N/A speed=16.9x    frame= 9839 fps=405 q=-0.0 size=N/A time=00:06:50.36 bitrate=N/A speed=16.9x    frame=10019 fps=404 q=-0.0 size=N/A time=00:06:57.87 bitrate=N/A speed=16.9x    frame=10232 fps=404 q=-0.0 size=N/A time=00:07:06.75 bitrate=N/A speed=16.9x    frame=10463 fps=405 q=-0.0 size=N/A time=00:07:16.39 bitrate=N/A speed=16.9x    frame=10672 fps=405 q=-0.0 size=N/A time=00:07:25.11 bitrate=N/A speed=16.9x    frame=10891 fps=406 q=-0.0 size=N/A time=00:07:34.24 bitrate=N/A speed=16.9x    frame=11105 fps=406 q=-0.0 size=N/A time=00:07:43.17 bitrate=N/A speed=16.9x    frame=11312 fps=406 q=-0.0 size=N/A time=00:07:51.80 bitrate=N/A speed=16.9x    frame=11532 fps=406 q=-0.0 size=N/A time=00:08:00.98 bitrate=N/A speed=16.9x    frame=11754 fps=406 q=-0.0 size=N/A time=00:08:10.23 bitrate=N/A speed=16.9x    frame=11973 fps=407 q=-0.0 size=N/A time=00:08:19.37 bitrate=N/A speed=  17x    frame=12185 fps=407 q=-0.0 size=N/A time=00:08:28.21 bitrate=N/A speed=  17x    frame=12418 fps=408 q=-0.0 size=N/A time=00:08:37.93 bitrate=N/A speed=  17x    frame=12605 fps=407 q=-0.0 size=N/A time=00:08:45.73 bitrate=N/A speed=  17x    frame=12814 fps=407 q=-0.0 size=N/A time=00:08:54.45 bitrate=N/A speed=  17x    frame=13033 fps=407 q=-0.0 size=N/A time=00:09:03.58 bitrate=N/A speed=  17x    frame=13241 fps=407 q=-0.0 size=N/A time=00:09:12.26 bitrate=N/A speed=  17x    frame=13467 fps=408 q=-0.0 size=N/A time=00:09:21.68 bitrate=N/A speed=  17x    frame=13700 fps=408 q=-0.0 size=N/A time=00:09:31.40 bitrate=N/A speed=  17x    frame=13935 fps=409 q=-0.0 size=N/A time=00:09:41.20 bitrate=N/A speed=17.1x    frame=14132 fps=409 q=-0.0 size=N/A time=00:09:49.42 bitrate=N/A speed=  17x    frame=14361 fps=409 q=-0.0 size=N/A time=00:09:58.97 bitrate=N/A speed=17.1x    frame=14565 fps=409 q=-0.0 size=N/A time=00:10:07.48 bitrate=N/A speed=17.1x    frame=14790 fps=409 q=-0.0 size=N/A time=00:10:16.86 bitrate=N/A speed=17.1x    frame=14983 fps=409 q=-0.0 size=N/A time=00:10:24.91 bitrate=N/A speed=  17x    frame=15185 fps=408 q=-0.0 size=N/A time=00:10:33.34 bitrate=N/A speed=  17x    frame=15394 fps=408 q=-0.0 size=N/A time=00:10:42.05 bitrate=N/A speed=  17x    frame=15622 fps=409 q=-0.0 size=N/A time=00:10:51.56 bitrate=N/A speed=17.1x    frame=15851 fps=409 q=-0.0 size=N/A time=00:11:01.11 bitrate=N/A speed=17.1x    frame=16079 fps=410 q=-0.0 size=N/A time=00:11:10.62 bitrate=N/A speed=17.1x    frame=16316 fps=410 q=-0.0 size=N/A time=00:11:20.51 bitrate=N/A speed=17.1x    frame=16544 fps=411 q=-0.0 size=N/A time=00:11:30.02 bitrate=N/A speed=17.1x    frame=16760 fps=411 q=-0.0 size=N/A time=00:11:39.03 bitrate=N/A speed=17.1x    frame=16977 fps=411 q=-0.0 size=N/A time=00:11:48.08 bitrate=N/A speed=17.1x    frame=17169 fps=411 q=-0.0 size=N/A time=00:11:56.09 bitrate=N/A speed=17.1x    frame=17396 fps=411 q=-0.0 size=N/A time=00:12:05.55 bitrate=N/A speed=17.1x    frame=17606 fps=411 q=-0.0 size=N/A time=00:12:14.31 bitrate=N/A speed=17.1x    frame=17831 fps=411 q=-0.0 size=N/A time=00:12:23.70 bitrate=N/A speed=17.1x    frame=18051 fps=411 q=-0.0 size=N/A time=00:12:32.87 bitrate=N/A speed=17.2x    frame=18280 fps=412 q=-0.0 size=N/A time=00:12:42.42 bitrate=N/A speed=17.2x    frame=18512 fps=412 q=-0.0 size=N/A time=00:12:52.10 bitrate=N/A speed=17.2x    frame=18727 fps=412 q=-0.0 size=N/A time=00:13:01.07 bitrate=N/A speed=17.2x    frame=18959 fps=413 q=-0.0 size=N/A time=00:13:10.74 bitrate=N/A speed=17.2x    frame=19184 fps=413 q=-0.0 size=N/A time=00:13:20.13 bitrate=N/A speed=17.2x    frame=19398 fps=413 q=-0.0 size=N/A time=00:13:29.05 bitrate=N/A speed=17.2x    frame=19640 fps=414 q=-0.0 size=N/A time=00:13:39.15 bitrate=N/A speed=17.2x    frame=19862 fps=414 q=-0.0 size=N/A time=00:13:48.41 bitrate=N/A speed=17.3x    frame=20073 fps=414 q=-0.0 size=N/A time=00:13:57.21 bitrate=N/A speed=17.3x    frame=20251 fps=413 q=-0.0 size=N/A time=00:14:04.63 bitrate=N/A speed=17.2x    frame=20456 fps=413 q=-0.0 size=N/A time=00:14:13.18 bitrate=N/A speed=17.2x    frame=20682 fps=413 q=-0.0 size=N/A time=00:14:22.61 bitrate=N/A speed=17.2x    frame=20906 fps=413 q=-0.0 size=N/A time=00:14:31.95 bitrate=N/A speed=17.2x    frame=21106 fps=413 q=-0.0 size=N/A time=00:14:40.29 bitrate=N/A speed=17.2x    frame=21323 fps=413 q=-0.0 size=N/A time=00:14:49.34 bitrate=N/A speed=17.2x    frame=21513 fps=413 q=-0.0 size=N/A time=00:14:57.27 bitrate=N/A speed=17.2x    frame=21736 fps=413 q=-0.0 size=N/A time=00:15:06.57 bitrate=N/A speed=17.2x    frame=21957 fps=413 q=-0.0 size=N/A time=00:15:15.78 bitrate=N/A speed=17.2x    frame=22188 fps=413 q=-0.0 size=N/A time=00:15:25.42 bitrate=N/A speed=17.2x    frame=22414 fps=414 q=-0.0 size=N/A time=00:15:34.85 bitrate=N/A speed=17.3x    frame=22585 fps=413 q=-0.0 size=N/A time=00:15:41.98 bitrate=N/A speed=17.2x    frame=22814 fps=413 q=-0.0 size=N/A time=00:15:51.53 bitrate=N/A speed=17.2x    frame=23048 fps=413 q=-0.0 size=N/A time=00:16:01.29 bitrate=N/A speed=17.2x    frame=23271 fps=414 q=-0.0 size=N/A time=00:16:10.59 bitrate=N/A speed=17.3x    frame=23467 fps=413 q=-0.0 size=N/A time=00:16:18.76 bitrate=N/A speed=17.2x    frame=23704 fps=414 q=-0.0 size=N/A time=00:16:28.65 bitrate=N/A speed=17.3x    frame=23916 fps=414 q=-0.0 size=N/A time=00:16:37.49 bitrate=N/A speed=17.3x    frame=24157 fps=414 q=-0.0 size=N/A time=00:16:47.54 bitrate=N/A speed=17.3x    frame=24381 fps=414 q=-0.0 size=N/A time=00:16:56.89 bitrate=N/A speed=17.3x    frame=24618 fps=415 q=-0.0 size=N/A time=00:17:06.77 bitrate=N/A speed=17.3x    frame=24870 fps=415 q=-0.0 size=N/A time=00:17:17.28 bitrate=N/A speed=17.3x    frame=25104 fps=416 q=-0.0 size=N/A time=00:17:27.04 bitrate=N/A speed=17.3x    frame=25349 fps=416 q=-0.0 size=N/A time=00:17:37.26 bitrate=N/A speed=17.4x    frame=25594 fps=417 q=-0.0 size=N/A time=00:17:47.48 bitrate=N/A speed=17.4x    frame=25808 fps=417 q=-0.0 size=N/A time=00:17:56.40 bitrate=N/A speed=17.4x    frame=26022 fps=417 q=-0.0 size=N/A time=00:18:05.33 bitrate=N/A speed=17.4x    frame=26255 fps=417 q=-0.0 size=N/A time=00:18:15.05 bitrate=N/A speed=17.4x    frame=26483 fps=417 q=-0.0 size=N/A time=00:18:24.56 bitrate=N/A speed=17.4x    frame=26736 fps=418 q=-0.0 size=N/A time=00:18:35.11 bitrate=N/A speed=17.4x    frame=26959 fps=418 q=-0.0 size=N/A time=00:18:44.41 bitrate=N/A speed=17.4x    frame=27204 fps=418 q=-0.0 size=N/A time=00:18:54.63 bitrate=N/A speed=17.4x    frame=27441 fps=419 q=-0.0 size=N/A time=00:19:04.51 bitrate=N/A speed=17.5x    frame=27684 fps=419 q=-0.0 size=N/A time=00:19:14.65 bitrate=N/A speed=17.5x    frame=27922 fps=419 q=-0.0 size=N/A time=00:19:24.58 bitrate=N/A speed=17.5x    frame=28114 fps=419 q=-0.0 size=N/A time=00:19:32.58 bitrate=N/A speed=17.5x    frame=28350 fps=419 q=-0.0 size=N/A time=00:19:42.43 bitrate=N/A speed=17.5x    frame=28588 fps=419 q=-0.0 size=N/A time=00:19:52.35 bitrate=N/A speed=17.5x    frame=28814 fps=420 q=-0.0 size=N/A time=00:20:01.78 bitrate=N/A speed=17.5x    frame=29018 fps=419 q=-0.0 size=N/A time=00:20:10.29 bitrate=N/A speed=17.5x    frame=29261 fps=420 q=-0.0 size=N/A time=00:20:20.46 bitrate=N/A speed=17.5x    frame=29500 fps=420 q=-0.0 size=N/A time=00:20:30.39 bitrate=N/A speed=17.5x    frame=29730 fps=420 q=-0.0 size=N/A time=00:20:39.98 bitrate=N/A speed=17.5x    frame=29939 fps=420 q=-0.0 size=N/A time=00:20:48.70 bitrate=N/A speed=17.5x    frame=30172 fps=421 q=-0.0 size=N/A time=00:20:58.42 bitrate=N/A speed=17.5x    frame=30399 fps=421 q=-0.0 size=N/A time=00:21:07.89 bitrate=N/A speed=17.5x    frame=30646 fps=421 q=-0.0 size=N/A time=00:21:18.19 bitrate=N/A speed=17.6x    frame=30870 fps=421 q=-0.0 size=N/A time=00:21:27.53 bitrate=N/A speed=17.6x    frame=31110 fps=421 q=-0.0 size=N/A time=00:21:37.54 bitrate=N/A speed=17.6x    frame=31346 fps=422 q=-0.0 size=N/A time=00:21:47.38 bitrate=N/A speed=17.6x    frame=31585 fps=422 q=-0.0 size=N/A time=00:21:57.35 bitrate=N/A speed=17.6x    frame=31786 fps=422 q=-0.0 size=N/A time=00:22:05.74 bitrate=N/A speed=17.6x    frame=31974 fps=421 q=-0.0 size=N/A time=00:22:13.58 bitrate=N/A speed=17.6x    frame=32178 fps=421 q=-0.0 size=N/A time=00:22:22.09 bitrate=N/A speed=17.6x    frame=32371 fps=421 q=-0.0 size=N/A time=00:22:30.14 bitrate=N/A speed=17.6x    frame=32534 fps=420 q=-0.0 size=N/A time=00:22:36.93 bitrate=N/A speed=17.5x    frame=32719 fps=420 q=-0.0 size=N/A time=00:22:44.65 bitrate=N/A speed=17.5x    frame=32867 fps=419 q=-0.0 size=N/A time=00:22:50.82 bitrate=N/A speed=17.5x    frame=33082 fps=419 q=-0.0 size=N/A time=00:22:59.79 bitrate=N/A speed=17.5x    frame=33278 fps=419 q=-0.0 size=N/A time=00:23:07.96 bitrate=N/A speed=17.5x    frame=33461 fps=418 q=-0.0 size=N/A time=00:23:15.60 bitrate=N/A speed=17.4x    frame=33636 fps=418 q=-0.0 size=N/A time=00:23:22.90 bitrate=N/A speed=17.4x    frame=33860 fps=418 q=-0.0 size=N/A time=00:23:32.24 bitrate=N/A speed=17.4x    frame=34036 fps=417 q=-0.0 size=N/A time=00:23:39.58 bitrate=N/A speed=17.4x    [Parsed_psnr_14 @ 00000225ec646b80] PSNR y:47.633959 u:51.128190 v:51.297155 average:48.533510 min:38.632046 max:72.938299
[out#0/null @ 00000225d5eeda80] video:14646KiB audio:266560KiB subtitle:0KiB other streams:0KiB global headers:0KiB muxing overhead: unknown
frame=34085 fps=417 q=-0.0 Lsize=N/A time=00:23:41.62 bitrate=N/A speed=17.4x    
